<?xml version="1.0" encoding="iso-8859-1"?>
<!-- Uploaded to: SVG Repo, www.svgrepo.com, Generator: SVG Repo Mixer Tools -->
<svg fill="#000000" height="800px" width="800px" version="1.1" id="Layer_1" xmlns="http://www.w3.org/2000/svg" xmlns:xlink="http://www.w3.org/1999/xlink" 
	 viewBox="0 0 512 512" xml:space="preserve">
<g>
	<g>
		<path d="M29,254.596v39.646c0,15.908,12.741,32.313,34.954,45.006c9.69,5.537,20.636,10.139,32.498,13.729
			c4.553-20.454,14.108-39.674,28.012-55.828c1.658-1.927,3.385-3.783,5.145-5.601C88.843,286.909,53.62,273.553,29,254.596z"/>
	</g>
</g>
<g>
	<g>
		<path d="M161.708,198.434c-41.461,0-80.726-9.038-110.564-25.448c-8.335-4.585-15.736-9.625-22.146-15.046v28.252v2.161
			c0,15.908,12.741,32.311,34.954,45.005c25.811,14.749,60.528,22.873,97.755,22.873c9.469,0,18.774-0.531,27.813-1.558
			c7.651-25.351,21.855-47.598,40.495-65C208.908,195.395,185.682,198.434,161.708,198.434z"/>
	</g>
</g>
<g>
	<g>
		<path d="M161.708,40.354c-73.75,0-125.145,31.872-125.145,60.476c0,28.604,51.395,60.476,125.145,60.476
			s125.145-31.872,125.145-60.476S235.458,40.354,161.708,40.354z"/>
	</g>
</g>
<g>
	<g>
		<path d="M453.611,308.656l-12.3-3.907l-0.621-12.892c-2.833-58.795-51.197-104.851-110.106-104.851
			c-52.543,0-98.033,37.402-108.165,88.931l-2.495,12.687l-12.765,2.058c-43.686,7.04-76.63,45.691-76.63,89.901
			c0,50.21,40.851,91.061,91.061,91.061H428.57c46.004,0,83.43-37.428,83.43-83.431C512,352.293,487.989,319.577,453.611,308.656z"
			/>
	</g>
</g>
<g>
	<g>
		<path d="M327.954,58.918v37.127c30.708,0,55.69,24.983,55.69,55.69h37.127C420.771,100.555,379.133,58.918,327.954,58.918z"/>
	</g>
</g>
<g>
	<g>
		<path d="M37.127,362.12H0c0,51.179,41.638,92.817,92.817,92.817V417.81C62.109,417.81,37.127,392.828,37.127,362.12z"/>
	</g>
</g>
</svg>