<svg xmlns="http://www.w3.org/2000/svg" version="1.1" xmlns:xlink="http://www.w3.org/1999/xlink" xmlns:svgjs="http://svgjs.dev/svgjs" width="2000" height="1500" viewBox="0 0 2000 1500"><rect width="2000" height="1500" fill="#ffffff"></rect><g transform="matrix(0.75,0,0,0.75,249.090909090909,504.21458211876484)"><svg viewBox="0 0 396 130" data-background-color="#c8c8c8" preserveAspectRatio="xMidYMid meet" height="656" width="2000" xmlns="http://www.w3.org/2000/svg" xmlns:xlink="http://www.w3.org/1999/xlink"><g id="tight-bounds" transform="matrix(1,0,0,1,0.2400000000000091,-0.05669852731591618)"><svg viewBox="0 0 395.52 130.11339705463183" height="130.11339705463183" width="395.52"><g><svg viewBox="0 0 395.52 130.11339705463183" height="130.11339705463183" width="395.52"><g><svg viewBox="0 0 395.52 130.11339705463183" height="130.11339705463183" width="395.52"><g id="textblocktransform"><svg viewBox="0 0 395.52 130.11339705463183" height="130.11339705463183" width="395.52" id="textblock"><g><svg viewBox="0 0 395.52 130.11339705463183" height="130.11339705463183" width="395.52"><rect width="395.52" height="130.11339705463183" x="0" y="0" opacity="1" fill="#000000" data-fill-palette-color="tertiary"></rect><g transform="matrix(1,0,0,1,23.607599999999998,23.607600000000005)"><svg width="348.3048" viewBox="-2.25 -25.05 105.25 25.05" height="82.89819705463182" data-palette-color="#c8c8c8"><path d="M1.95-25L11.65-25 16.55-11.9 8.55 0-2.25 0 6.8-12.75 1.95-25ZM10.15-15.8L20.45-15.8 19.65-9.9 9.4-9.9 10.15-15.8ZM20.85-25L31.35-25 22.9-12.75 28.2 0 18.35 0 13.15-13.65 20.85-25ZM32.25-25.05L42.9-25.05 42.5-6.5 42.8-6.5Q43.55-6.5 44.02-7.3 44.5-8.1 44.9-9.8L44.9-9.8Q45.15-10.7 45.37-11.83 45.6-12.95 45.8-14.35L45.8-14.35Q46-15.45 46.17-16.7 46.35-17.95 46.55-19.38 46.75-20.8 47-22.4L47-22.4Q47.1-23.25 47.82-24.13 48.55-25 50.1-25L50.1-25 58.7-25Q59.9-25 60.7-24.25 61.5-23.5 61.55-22.35L61.55-22.35 61.7-6.5 62.05-6.5Q63-6.5 63.3-7.6 63.6-8.7 63.95-10.4L63.95-10.4Q64.3-11.95 64.52-13.33 64.75-14.7 64.95-16.1L64.95-16.1Q65.25-18.05 65.47-20.18 65.7-22.3 65.9-25L65.9-25 76.3-25Q76.1-23.25 75.85-21.5 75.6-19.75 75.3-18.05 75-16.35 74.6-14.7L74.6-14.7Q74.1-12.4 73.47-10.28 72.85-8.15 72.15-6.4L72.15-6.4Q71.25-4.15 70.02-2.73 68.8-1.3 66.75-0.65 64.7 0 61.15 0L61.15 0 57.3 0Q56.05 0 55.2-0.83 54.35-1.65 54.35-2.8L54.35-2.8 54.45-18.8 53.85-18.8Q53.8-18.4 53.67-17.45 53.55-16.5 53.35-15.28 53.15-14.05 52.9-12.65L52.9-12.65Q52.75-11.7 52.55-10.7 52.35-9.7 52.15-8.8 51.95-7.9 51.75-7.1L51.75-7.1Q50.85-3.7 49.4-2.2 47.95-0.7 46-0.35 44.05 0 41.5 0L41.5 0 36 0Q34.75 0 33.95-0.83 33.15-1.65 33.05-2.8L33.05-2.8 32.25-25.05ZM76.75-6.75L89.7-18.3 102.2-18.25 89.3-6.7 76.75-6.75ZM76.8-6.75L100.75-6.75 99.85 0 75.95 0 76.8-6.75ZM79.7-25L103-25 102.15-18.25 78.8-18.25 79.7-25Z" opacity="1" transform="matrix(1,0,0,1,0,0)" fill="#ffffff" class="wordmark-text-0" data-fill-palette-color="quaternary" id="text-0"></path></svg></g></svg></g></svg></g></svg></g></svg></g><defs></defs></svg><rect width="395.52" height="130.11339705463183" fill="none" stroke="none" visibility="hidden"></rect></g></svg></g></svg>