<svg xmlns="http://www.w3.org/2000/svg" version="1.1" xmlns:xlink="http://www.w3.org/1999/xlink" xmlns:svgjs="http://svgjs.dev/svgjs" width="2000" height="1614" viewBox="0 0 2000 1614"><g transform="matrix(1,0,0,1,-0.35495625491694227,0.6546479531797331)"><svg viewBox="0 0 306 247" data-background-color="#ffffff" preserveAspectRatio="xMidYMid meet" height="1614" width="2000" xmlns="http://www.w3.org/2000/svg" xmlns:xlink="http://www.w3.org/1999/xlink"><g id="tight-bounds" transform="matrix(1,0,0,1,0.0544849605848583,-0.09997365579206985)"><svg viewBox="0 0 305.89120673241285 247.2" height="247.2" width="305.89120673241285"><g><svg viewBox="0 0 305.89120673241285 247.2" height="247.2" width="305.89120673241285"><g><svg viewBox="0 0 305.89120673241285 247.2" height="247.2" width="305.89120673241285"><g id="textblocktransform"><svg viewBox="0 0 305.89120673241285 247.2" height="247.2" width="305.89120673241285" id="textblock"><g><svg viewBox="0 0 305.89120673241285 247.2" height="247.2" width="305.89120673241285"><path d="M305.175 53.02C303.737 27.36 299.639 20.227 299.639 20.227 287.055-6.202 271.352-0.506 257.245 3.292 232.337 3.446 207.531 9.091 182.681 12.119 130.523 12.581 77.918 4.986 26.019 23.717 21.144 29.464-5.058 24.846 0.867 56.304 2.42 69.39 8.086 83.913 7.914 95.922 8.69 98.026 9.769 93.202 10.229 96.23 11.84 104.39 14.471 100.541 16.628 105.365 13.623 118.246 15.78 128.971 17.836 140.21 14.212 143.135 9.567 141.749 7.482 151.449 7.267 158.479 6.102 157.145 4.822 156.837 3.887 156.632 2.003 157.402 2.32 159.608 3.398 167.152-1.232 171.514 1.672 178.904-0.326 186.91 3.053 193.838 2.593 202.511 2.535 204.255 2.852 205.744 3.355 206.154 5.584 208.361 2.334 212.672 2.679 217.342 25.544 249.262 50.351 227.195 73.777 241.872 79.86 231.608 75.287 245.516 77.717 243.36 79.615 240.846 80.996 251.263 83.139 245.362 83.469 243.668 82.966 239.665 84.145 240.435 84.764 240.846 85.31 240.743 85.396 238.382 85.526 234.841 84.39 237.048 84.088 235.201 87.352 225.861 86.547 248.081 89.61 247.158 89.466 244.438 88.574 240.538 90.401 241.051 92.213 237.151 92.27 233.918 93.881 242.693 93.938 244.592 94.226 245.926 94.686 246.85 99.719 237.305 104.724 250.237 110.002 245.926 113.237 241.205 116.343 248.492 119.622 246.696 120.773 245.259 121.937 242.693 123.045 247.004 136.606 247.928 151.058 244.079 163.914 247.158 198.27 241.41 234.983 249.518 271.208 241.923 279.75 238.998 288.623 234.841 296.949 231.506 296.949 231.506 303.694 222.371 303.694 181.316S305.132 145.393 305.348 112.703C305.563 80.013 306.57 78.679 305.132 53.02Z" opacity="1" fill="#000000" data-fill-palette-color="tertiary"></path><g transform="matrix(1,0,0,1,55.76832,26.230666666666668)"><svg width="194.35456673241285" viewBox="0.8 -25.35 25.3 25.35" height="194.73866666666666" data-palette-color="#ffffff"><path d="M26.1-25.35L17-12.65 25.45 0 17.5 0 13.25-7.6 8.7 0 0.8 0 9.85-12.7 1.35-25.35 9.45-25.35 13.55-17.8 18.1-25.35 26.1-25.35Z" opacity="1" transform="matrix(1,0,0,1,0,0)" fill="#ffffff" class="wordmark-text-0" data-fill-palette-color="quaternary" id="text-0"></path></svg></g></svg></g></svg></g></svg></g><g></g></svg></g><defs></defs></svg><rect width="305.89120673241285" height="247.2" fill="none" stroke="none" visibility="hidden"></rect></g></svg></g></svg>