<svg xmlns="http://www.w3.org/2000/svg" version="1.1" xmlns:xlink="http://www.w3.org/1999/xlink" xmlns:svgjs="http://svgjs.dev/svgjs" width="128" height="128" viewBox="0 0 128 128"><g transform="matrix(0.8046875,0,0,0.8046875,12.333870967741937,26.16500570166925)"><svg viewBox="0 0 155 115" data-background-color="#c8c8c8" preserveAspectRatio="xMidYMid meet" height="94" width="128" xmlns="http://www.w3.org/2000/svg" xmlns:xlink="http://www.w3.org/1999/xlink"><g id="tight-bounds" transform="matrix(1,0,0,1,0.25,0.0223214285714306)"><svg viewBox="0 0 154.5 114.95535714285714" height="114.95535714285714" width="154.5"><g><svg viewBox="0 0 154.5 114.95535714285714" height="114.95535714285714" width="154.5"><g><svg viewBox="0 0 154.5 114.95535714285714" height="114.95535714285714" width="154.5"><g id="textblocktransform"><svg viewBox="0 0 154.5 114.95535714285714" height="114.95535714285714" width="154.5" id="textblock"><g><svg viewBox="0 0 154.5 114.95535714285714" height="114.95535714285714" width="154.5"><g transform="matrix(1,0,0,1,0,0)"><svg width="154.5" viewBox="-2.25 -25 33.6 25" height="114.95535714285714" data-palette-color="#6b7280"><path d="M1.95-25L11.65-25 16.55-11.9 8.55 0-2.25 0 6.8-12.75 1.95-25ZM10.15-15.8L20.45-15.8 19.65-9.9 9.4-9.9 10.15-15.8ZM20.85-25L31.35-25 22.9-12.75 28.2 0 18.35 0 13.15-13.65 20.85-25Z" opacity="1" transform="matrix(1,0,0,1,0,0)" fill="#000000" class="wordmark-text-0" data-fill-palette-color="primary" id="text-0"></path></svg></g></svg></g></svg></g></svg></g></svg></g><defs></defs></svg><rect width="154.5" height="114.95535714285714" fill="none" stroke="none" visibility="hidden"></rect></g></svg></g></svg>